<svg width="44" height="49" viewBox="0 0 44 49" fill="none" xmlns="http://www.w3.org/2000/svg">
<path d="M24.2197 45.038C22.992 46.2343 20.9982 46.2343 19.7705 45.038L4.05626 29.7255C2.82858 28.5292 2.82858 26.5864 4.05626 25.3901C5.28394 24.1938 7.27769 24.1938 8.50536 25.3901L22 38.5397L35.4946 25.3997C36.7223 24.2034 38.7161 24.2034 39.9438 25.3997C41.1714 26.596 41.1714 28.5388 39.9438 29.7351L24.2295 45.0476L24.2197 45.038ZM39.9339 11.3505L24.2197 26.663C22.992 27.8593 20.9982 27.8593 19.7705 26.663L4.05626 11.3505C2.82858 10.1542 2.82858 8.21143 4.05626 7.01514C5.28394 5.81885 7.27769 5.81885 8.50536 7.01514L22 20.1647L35.4946 7.02471C36.7223 5.82842 38.7161 5.82842 39.9438 7.02471C41.1714 8.221 41.1714 10.1638 39.9438 11.3601L39.9339 11.3505Z" fill="#F36B3B"/>
</svg>
