<svg width="100" height="81" viewBox="0 0 100 81" fill="none" xmlns="http://www.w3.org/2000/svg">
<g clip-path="url(#clip0_78_917)">
<path d="M52.7812 1.34375C51.0937 0.21875 48.9063 0.21875 47.2188 1.34375L25.9844 15.5H7.5C3.35938 15.5 0 18.8594 0 23V73C0 77.1406 3.35938 80.5 7.5 80.5H40V65.5C40 59.9844 44.4844 55.5 50 55.5C55.5156 55.5 60 59.9844 60 65.5V80.5H92.5C96.6406 80.5 100 77.1406 100 73V23C100 18.8594 96.6406 15.5 92.5 15.5H74.0156L52.7812 1.34375ZM15 30.5H20C21.375 30.5 22.5 31.625 22.5 33V43C22.5 44.375 21.375 45.5 20 45.5H15C13.625 45.5 12.5 44.375 12.5 43V33C12.5 31.625 13.625 30.5 15 30.5ZM77.5 33C77.5 31.625 78.625 30.5 80 30.5H85C86.375 30.5 87.5 31.625 87.5 33V43C87.5 44.375 86.375 45.5 85 45.5H80C78.625 45.5 77.5 44.375 77.5 43V33ZM15 50.5H20C21.375 50.5 22.5 51.625 22.5 53V63C22.5 64.375 21.375 65.5 20 65.5H15C13.625 65.5 12.5 64.375 12.5 63V53C12.5 51.625 13.625 50.5 15 50.5ZM77.5 53C77.5 51.625 78.625 50.5 80 50.5H85C86.375 50.5 87.5 51.625 87.5 53V63C87.5 64.375 86.375 65.5 85 65.5H80C78.625 65.5 77.5 64.375 77.5 63V53ZM36.25 28C36.25 24.3533 37.6987 20.8559 40.2773 18.2773C42.8559 15.6987 46.3533 14.25 50 14.25C53.6467 14.25 57.1441 15.6987 59.7227 18.2773C62.3013 20.8559 63.75 24.3533 63.75 28C63.75 31.6467 62.3013 35.1441 59.7227 37.7227C57.1441 40.3013 53.6467 41.75 50 41.75C46.3533 41.75 42.8559 40.3013 40.2773 37.7227C37.6987 35.1441 36.25 31.6467 36.25 28ZM50 20.5C48.625 20.5 47.5 21.625 47.5 23V28C47.5 29.375 48.625 30.5 50 30.5H55C56.375 30.5 57.5 29.375 57.5 28C57.5 26.625 56.375 25.5 55 25.5H52.5V23C52.5 21.625 51.375 20.5 50 20.5Z" fill="white"/>
</g>
<defs>
<clipPath id="clip0_78_917">
<rect width="100" height="80" fill="white" transform="translate(0 0.5)"/>
</clipPath>
</defs>
</svg>
