<svg width="100" height="81" viewBox="0 0 100 81" fill="none" xmlns="http://www.w3.org/2000/svg">
<g clip-path="url(#clip0_78_910)">
<path d="M22.5 0C25.8152 0 28.9946 1.33342 31.3388 3.70693C33.683 6.08044 35 9.2996 35 12.6562C35 16.0129 33.683 19.2321 31.3388 21.6056C28.9946 23.9791 25.8152 25.3125 22.5 25.3125C19.1848 25.3125 16.0054 23.9791 13.6612 21.6056C11.317 19.2321 10 16.0129 10 12.6562C10 9.2996 11.317 6.08044 13.6612 3.70693C16.0054 1.33342 19.1848 0 22.5 0ZM80 0C83.3152 0 86.4946 1.33342 88.8388 3.70693C91.183 6.08044 92.5 9.2996 92.5 12.6562C92.5 16.0129 91.183 19.2321 88.8388 21.6056C86.4946 23.9791 83.3152 25.3125 80 25.3125C76.6848 25.3125 73.5054 23.9791 71.1612 21.6056C68.817 19.2321 67.5 16.0129 67.5 12.6562C67.5 9.2996 68.817 6.08044 71.1612 3.70693C73.5054 1.33342 76.6848 0 80 0ZM0 47.2553C0 37.9371 7.46875 30.375 16.6719 30.375H23.3438C25.8281 30.375 28.1875 30.9287 30.3125 31.9096C30.1094 33.0486 30.0156 34.2352 30.0156 35.4375C30.0156 41.4809 32.6406 46.9072 36.7812 50.625C36.75 50.625 36.7188 50.625 36.6719 50.625H3.32812C1.5 50.625 0 49.1063 0 47.2553ZM63.3281 50.625C63.2969 50.625 63.2656 50.625 63.2188 50.625C67.375 46.9072 69.9844 41.4809 69.9844 35.4375C69.9844 34.2352 69.875 33.0645 69.6875 31.9096C71.8125 30.9129 74.1719 30.375 76.6562 30.375H83.3281C92.5312 30.375 100 37.9371 100 47.2553C100 49.1221 98.5 50.625 96.6719 50.625H63.3281ZM35 35.4375C35 31.4095 36.5804 27.5465 39.3934 24.6983C42.2064 21.8501 46.0218 20.25 50 20.25C53.9782 20.25 57.7936 21.8501 60.6066 24.6983C63.4197 27.5465 65 31.4095 65 35.4375C65 39.4655 63.4197 43.3285 60.6066 46.1767C57.7936 49.0249 53.9782 50.625 50 50.625C46.0218 50.625 42.2064 49.0249 39.3934 46.1767C36.5804 43.3285 35 39.4655 35 35.4375ZM20 76.776C20 65.1322 29.3281 55.6875 40.8281 55.6875H59.1719C70.6719 55.6875 80 65.1322 80 76.776C80 79.1016 78.1406 81 75.8281 81H24.1719C21.875 81 20 79.1174 20 76.776Z" fill="white"/>
</g>
<defs>
<clipPath id="clip0_78_910">
<rect width="100" height="81" fill="white"/>
</clipPath>
</defs>
</svg>
