<svg width="15" height="14" viewBox="0 0 15 14" fill="none" xmlns="http://www.w3.org/2000/svg">
<path d="M10.3125 0C9.93457 0 9.5918 0.213281 9.44531 0.541406C9.29883 0.869531 9.38086 1.24414 9.64746 1.4957L10.8604 2.625L5.90039 7.25703C5.53418 7.59883 5.53418 8.15391 5.90039 8.4957C6.2666 8.8375 6.86133 8.8375 7.22754 8.4957L12.1875 3.86367L13.4004 4.9957C13.6699 5.24727 14.0713 5.32109 14.4229 5.18438C14.7744 5.04766 15.0029 4.73047 15.0029 4.375V0.875C15.0029 0.391016 14.584 0 14.0654 0H10.3125ZM2.34375 0.875C1.04883 0.875 0 1.85391 0 3.0625V11.8125C0 13.0211 1.04883 14 2.34375 14H11.7188C13.0137 14 14.0625 13.0211 14.0625 11.8125V8.75C14.0625 8.26602 13.6436 7.875 13.125 7.875C12.6064 7.875 12.1875 8.26602 12.1875 8.75V11.8125C12.1875 12.0531 11.9766 12.25 11.7188 12.25H2.34375C2.08594 12.25 1.875 12.0531 1.875 11.8125V3.0625C1.875 2.82188 2.08594 2.625 2.34375 2.625H5.625C6.14355 2.625 6.5625 2.23398 6.5625 1.75C6.5625 1.26602 6.14355 0.875 5.625 0.875H2.34375Z" fill="#F36B3B"/>
</svg>
